<?xml version="1.0" encoding="utf-8"?>
<!-- Generator: Adobe Illustrator 19.0.0, SVG Export Plug-In . SVG Version: 6.00 Build 0)  -->
<svg version="1.1" id="Layer_1" xmlns="http://www.w3.org/2000/svg" xmlns:xlink="http://www.w3.org/1999/xlink" x="0px" y="0px"
	 width="1400px" height="980px" viewBox="0 0 1400 980" enable-background="new 0 0 1400 980" xml:space="preserve">
<rect id="XMLID_100_" fill-rule="evenodd" clip-rule="evenodd" fill="#C49A6C" width="1400" height="980"/>
<g id="XMLID_1_">
	<g id="XMLID_98_">
		<path id="XMLID_3_" fill-rule="evenodd" clip-rule="evenodd" fill="#67482F" d="M475.9,513.5L164,512.4l-9.8,0
			c54.7-54.6,205.2-61.6,278.5-61.6c10.4,0,20.9,0.1,31.3,0.4c2.9,0.1,5.8,0.2,8.7,0.3c1,0,2.2,0.1,3.2,0.1L475.9,513.5z"/>
		<path id="XMLID_4_" fill-rule="evenodd" clip-rule="evenodd" fill="#67482F" d="M492.6,446.7c10.8,0,14.2,4.8,14.2,14.4
			c0,3.7,2.6,5.1,6.3,5.1c9.7,0,27.3-9.1,27.3-9.1c17.8-6.4,32.4-8.8,44.2-8.8c32.8,0,44.5,18.1,44.5,18.1
			c5.9-5.9,17.6-15.7,27.7-15.7c8.4,0,15.7,6.8,17.7,28.3c1.2,13.4-4.6,20.7-11.9,24.7c-7.3,4-16.1,4.5-20.3,4.5
			c-1.6,0-2.5-0.1-2.5-0.1c-20.1-2.7-40.4-3.7-59.5-3.7c-49.5,0-91.2,6.7-101.8,8.6l0-64.1C483.5,447.8,487.4,446.7,492.6,446.7
			L492.6,446.7z M498.7,472.1c-4.9,0-8.9,4-8.9,8.9c0,4.9,4,8.9,8.9,8.9c4.9,0,8.9-4,8.9-8.9C507.6,476.1,503.6,472.1,498.7,472.1
			L498.7,472.1z M650.2,467.6c-4.9,0-8.9,4-8.9,8.9s4,8.9,8.9,8.9c4.9,0,8.9-4,8.9-8.9C659,471.5,655.1,467.6,650.2,467.6
			L650.2,467.6z"/>
		<path id="XMLID_8_" fill-rule="evenodd" clip-rule="evenodd" fill="#67482F" d="M150.7,512.3L150.7,512.3
			c61.7-81.5,284.3-84.8,320.3-84.8c3.2,0,4.9,0,4.9,0V449l0,0l0,0c0,0-16.9-0.9-43.2-0.9C357.3,448.1,204.5,455.5,150.7,512.3
			L150.7,512.3z"/>
	</g>
	<path id="XMLID_2_" fill-rule="evenodd" clip-rule="evenodd" fill="#67482F" d="M182.9,121.8h319.2c6.3,0,12.3,1.8,17.3,4.8
		c30.4,16.9,21.4,73.5,46.5,90.2c6.7,4.5,53.2-10.8,66.5-10.8c44.4,0,78.4,65.8,26.1,97.2c-39.7,23.8-68.5-16.5-94.9-3.1
		c-31.1,15.8-10.4,85.7-61.5,89.2l-0.1-0.5H182.9c-17.7,0-32.2-13.8-32.2-30.7V152.5C150.7,135.6,165.2,121.8,182.9,121.8
		L182.9,121.8z M637,242.3c8.9,0,16.1,7.2,16.1,16.1c0,8.9-7.2,16.1-16.1,16.1c-8.9,0-16.1-7.2-16.1-16.1
		C620.9,249.5,628.1,242.3,637,242.3L637,242.3z"/>
	<path id="XMLID_11_" fill-rule="evenodd" clip-rule="evenodd" fill="#67482F" d="M876.3,121.8c87.2,0,157.9,70.7,157.9,157.9
		c0,87.2-70.7,157.9-157.9,157.9s-157.9-70.7-157.9-157.9C718.4,192.5,789.1,121.8,876.3,121.8L876.3,121.8z M876.3,165.1
		c63.3,0,114.6,51.3,114.6,114.6s-51.3,114.6-114.6,114.6c-63.3,0-114.6-51.3-114.6-114.6S813,165.1,876.3,165.1L876.3,165.1z
		 M876.3,169.9c60.6,0,109.8,49.2,109.8,109.8s-49.2,109.8-109.8,109.8c-60.6,0-109.8-49.2-109.8-109.8S815.6,169.9,876.3,169.9
		L876.3,169.9z"/>
	<g id="XMLID_42_">
		<path id="XMLID_16_" fill-rule="evenodd" clip-rule="evenodd" fill="#67482F" d="M764,472.8c3.9,0,7,3.2,7,7c0,3.9-3.1,7-7,7
			c-3.9,0-7-3.1-7-7C756.9,476,760.1,472.8,764,472.8L764,472.8z M944.8,479.9L944.8,479.9c0-9.9-8.1-18.1-18.1-18.1H764.7
			c-9.9,0-18.1,8.1-18.1,18.1l0,0c0,9.9,8.1,18.1,18.1,18.1h162.1C936.7,497.9,944.8,489.8,944.8,479.9L944.8,479.9z"/>
		<path id="XMLID_19_" fill-rule="evenodd" clip-rule="evenodd" fill="#67482F" d="M1069.7,489.2H945.6c1.4-2.8,2.2-6,2.2-9.3
			c0-3.3-0.8-6.5-2.2-9.3h124.1V489.2z M1073,459.1l0-25.9c0-5.7,4.7-10.4,10.4-10.4h109c16.1,0,29.3,13.2,29.3,29.3v21.7V486v21.7
			c0,16.1-13.2,29.2-29.3,29.2h-109c-5.7,0-10.4-4.7-10.4-10.4v-15.4h0.1L1073,459.1L1073,459.1z"/>
	</g>
	<g id="XMLID_41_">
		<path id="XMLID_22_" fill-rule="evenodd" clip-rule="evenodd" fill="#67482F" d="M896.1,571.6h108c-1.3,2.7-2,5.7-2,8.8v0v0.1
			c0,3.2,0.7,6.2,2,8.9h-108V571.6z"/>
		<path id="XMLID_23_" fill-rule="evenodd" clip-rule="evenodd" fill="#67482F" d="M762,618c0,2.6,2.1,4.7,4.7,4.7H874
			c2.6,0,4.8-2.1,4.8-4.7l0,0c0-2.6-2.1-4.8-4.8-4.8H766.7C764.1,613.2,762,615.4,762,618L762,618z M762,541.9
			c0,2.6,2.1,4.7,4.7,4.7H874c2.6,0,4.8-2.1,4.8-4.7l0,0c0-2.6-2.1-4.8-4.8-4.8H766.7C764.1,537.2,762,539.3,762,541.9L762,541.9z
			 M762,580c0,2.6,2.1,4.7,4.7,4.7H874c2.6,0,4.8-2.1,4.8-4.7l0,0c0-2.6-2.1-4.8-4.8-4.8H766.7C764.1,575.2,762,577.3,762,580
			L762,580z M762,599c0,2.6,2.1,4.7,4.7,4.7H874c2.6,0,4.8-2.1,4.8-4.7l0,0c0-2.6-2.1-4.8-4.8-4.8H766.7
			C764.1,594.2,762,596.4,762,599L762,599z M762,560.9c0,2.6,2.1,4.7,4.7,4.7H874c2.6,0,4.8-2.1,4.8-4.7l0,0c0-2.6-2.1-4.8-4.8-4.8
			H766.7C764.1,556.2,762,558.3,762,560.9L762,560.9z M743,605.1v-49.2c0-19.1,15.6-34.7,34.7-34.7h103.7c6.3,0,11.5,5.2,11.5,11.5
			v94.8c0,6.8-5.5,12.3-12.3,12.3H777.6C758.6,639.7,743,624.2,743,605.1L743,605.1z"/>
		<path id="XMLID_30_" fill-rule="evenodd" clip-rule="evenodd" fill="#67482F" d="M1188.1,580.5c0,4,3.3,7.3,7.3,7.3
			c4,0,7.3-3.3,7.3-7.3c0-4-3.3-7.3-7.3-7.3C1191.4,573.2,1188.1,576.5,1188.1,580.5L1188.1,580.5z M1005.5,580.5L1005.5,580.5
			c0-9.5,7.8-17.3,17.3-17.3h181.5c9.5,0,17.3,7.8,17.3,17.3v0c0,9.5-7.8,17.3-17.3,17.3h-181.5
			C1013.3,597.8,1005.5,590,1005.5,580.5L1005.5,580.5z"/>
	</g>
	<path id="XMLID_15_" fill-rule="evenodd" clip-rule="evenodd" fill="#67482F" d="M477.6,644.7c-9-5.5-11.8-6.7-17.8-15.4
		c-4.5-6.6-7.1-12.9-8.4-19.2c-20.5-97.9,88.9-98,68.4,0c-1.3,6.3-3.9,12.6-8.4,19.2c-5.9,8.8-8.7,9.9-17.8,15.4
		c-15.6,9.5,22,207.6-5.1,213.4c-2.7,0.6-5-1.4-6.9-3.8C466.4,834.5,486.2,650,477.6,644.7L477.6,644.7z"/>
	<path id="XMLID_33_" fill-rule="evenodd" clip-rule="evenodd" fill="#67482F" d="M559.4,544l0.4,76.2c0,1.3,3.9,1.3,3.9,0l0.2-76.6
		c0-2.4,3.9-2.4,4-0.4l1.4,77v8.8c0,5.1-4.8,8.2-8.8,10.7c-14.2,8.7,21.7,212.8-4.6,218.4c-2.7,0.6-5-1.4-6.9-3.8
		c-17-22.2,6.4-207.8-4.6-214.5c-4-2.5-8.8-5.6-8.8-10.7v-8.8l1.3-76.6c0-2.4,4-2.3,4-0.4l0.3,77c0,1.3,3.9,1.3,3.9,0l0.4-76.2
		c0-3.1,4.7-2.8,4.7-0.3l0.5,76.5c0,1.3,3.8,1.3,3.8,0l0.4-76.4C554.8,540.8,559.4,541.3,559.4,544L559.4,544z"/>
	<path id="XMLID_34_" fill-rule="evenodd" clip-rule="evenodd" fill="#67482F" d="M607.3,538.1c3.3-0.1,4.9,1.3,5.7,4.3
		c2.6,10.7,1,32.5,1.1,44.4c0.4,40.6,0.2,99.4,0.7,137.3c-1.2,2.4-2.4,8.5-2.4,15.5c0.1,25.5,16.2,114.1-4,118.4
		c-2.7,0.6-5-1.4-6.9-3.8c-11.9-15.5-2.9-91.9-3.3-113.9c-0.5-6.3-1-10.8-4-16.4c-2.3-19.8-2.5-39.6-3.5-59.5
		c-0.9-18.1-1-34.7-0.9-52c0.1-22,1.7-36.6,6.7-58.5c0.9-4.1,2.6-10.8,6.5-14C604,538.9,605.5,538.2,607.3,538.1L607.3,538.1z"/>
	<path id="XMLID_44_" fill-rule="evenodd" clip-rule="evenodd" fill="#67482F" d="M982.8,749.5c0-2.8-2.3-5-5-5
		c-2.8,0-5.1,2.3-5.1,5c0,2.8,2.3,5.1,5.1,5.1C980.5,754.5,982.8,752.3,982.8,749.5L982.8,749.5z"/>
	<g id="XMLID_40_">
		<path id="XMLID_45_" fill-rule="evenodd" clip-rule="evenodd" fill="#67482F" d="M949.2,636.6h194.6c6,0,11,4.9,11,11V671
			c0,6-4.9,11-11,11H949.2c-6.1,0-11-4.9-11-11v-23.4C938.2,641.6,943.1,636.6,949.2,636.6L949.2,636.6z"/>
		<path id="XMLID_46_" fill-rule="evenodd" clip-rule="evenodd" fill="#67482F" d="M871.3,657.2v4.1c0,2.2,0.7,4.2,1.8,5.6l0,0l0,0
			c0.9,1.2,2.1,2,3.4,2.3c0.3,0,0.5,0.1,0.8,0.1h1l0-0.3l0,0l0-0.2l0-0.3l0-0.3l0-0.2l0-0.2l0.1-0.4l0-0.2c0-0.1,0-0.2,0-0.4l0-0.2
			l0-0.2l0-0.4l0-0.2l0-0.2l0,0l0-0.3v0l0-0.2l0-0.3l0-0.2l0-0.3l0-0.2c0-0.1,0-0.2,0-0.4l0-0.2l0-0.3l0-0.3l0-0.3l0-0.2l0-0.4V662
			l0-0.3v-0.2l0-0.3V661l0-0.4v-0.1c0-0.1,0-0.3,0-0.4v-0.1v-0.3v-0.2v-0.4l0-0.1c0-0.1,0-0.3,0-0.4v-0.1c0-0.2,0-0.3,0-0.4v0l0,0
			c0-0.2,0-0.3,0-0.4l0-0.2l0-0.4l0-0.1c0-0.1,0-0.3,0-0.4v0v0c0-0.1,0-0.3,0-0.4l0-0.1c0-0.1,0-0.3,0-0.4v-0.1c0-0.1,0-0.3,0-0.4
			l0-0.1c0-0.1,0-0.3,0-0.4l0-0.1c0-0.1,0-0.3,0-0.4l0-0.2c0-0.1,0-0.3,0-0.4l0-0.1c0-0.1,0-0.3-0.1-0.4l0-0.1v0
			c0-0.2,0-0.3-0.1-0.5l0-0.1c0-0.1,0-0.3-0.1-0.4l0-0.1c0-0.1,0-0.3-0.1-0.4l0,0l0,0l0,0c0-0.1,0-0.3-0.1-0.4l0-0.1
			c0-0.1,0-0.3-0.1-0.4l0-0.2c0-0.1-0.1-0.3-0.1-0.4h-0.8c-0.2,0-0.5,0-0.7,0.1c-1.4,0.2-2.6,1.1-3.5,2.3
			C872,653.1,871.3,655,871.3,657.2L871.3,657.2z M878.9,664.1c0-0.1,0-0.2,0-0.4C879,663.9,878.9,664,878.9,664.1L878.9,664.1z
			 M879.1,660.4c0-0.1,0-0.3,0-0.4C879.1,660.1,879.1,660.3,879.1,660.4L879.1,660.4z M879.1,658.8c0-0.1,0-0.3,0-0.4
			C879.1,658.5,879.1,658.7,879.1,658.8L879.1,658.8z M879,656.7c0-0.1,0-0.3,0-0.4C879,656.4,879,656.5,879,656.7L879,656.7z
			 M878.9,655.1c0-0.1,0-0.3,0-0.4C878.9,654.8,878.9,654.9,878.9,655.1L878.9,655.1z M878.8,653.4c0-0.1,0-0.3,0-0.4
			C878.7,653.2,878.7,653.3,878.8,653.4L878.8,653.4z M878.7,652.9c0-0.1,0-0.3-0.1-0.4C878.7,652.6,878.7,652.8,878.7,652.9
			L878.7,652.9z M878.6,652.4c0-0.2,0-0.3-0.1-0.5C878.6,652.1,878.6,652.3,878.6,652.4L878.6,652.4z M878.5,651.9
			c0-0.1,0-0.3-0.1-0.4C878.5,651.6,878.5,651.7,878.5,651.9L878.5,651.9z M878.5,651.3c0-0.1,0-0.3-0.1-0.4
			C878.4,651,878.4,651.2,878.5,651.3L878.5,651.3z M878.4,650.8c0-0.1,0-0.3-0.1-0.4C878.3,650.5,878.3,650.7,878.4,650.8
			L878.4,650.8z M878.2,649.7c0-0.1-0.1-0.3-0.1-0.4C878.1,649.4,878.1,649.5,878.2,649.7L878.2,649.7z M878.6,667.3
			c0-0.1,0-0.2,0-0.4C878.6,667,878.6,667.2,878.6,667.3L878.6,667.3z M879.1,661c0-0.1,0-0.3,0-0.4L879.1,661z M879.1,658.3
			c0-0.2,0-0.3,0-0.4C879.1,658,879.1,658.1,879.1,658.3L879.1,658.3z M879.1,657.8c0-0.2,0-0.3,0-0.4
			C879.1,657.5,879.1,657.6,879.1,657.8L879.1,657.8z M879,656.1c0-0.1,0-0.3,0-0.4C879,655.9,879,656,879,656.1L879,656.1z
			 M879,655.6c0-0.1,0-0.3,0-0.4C878.9,655.3,879,655.5,879,655.6L879,655.6z M878.9,654.5c0-0.1,0-0.3,0-0.4
			C878.9,654.3,878.9,654.4,878.9,654.5L878.9,654.5z M878.8,654c0-0.1,0-0.3,0-0.4C878.8,653.7,878.8,653.9,878.8,654L878.8,654z
			 M878.3,650.3c0-0.1,0-0.3-0.1-0.4C878.2,650,878.2,650.1,878.3,650.3L878.3,650.3z M878.3,669.4h54.1v-20.1h-54.2
			c0,0.1,0,0.3,0.1,0.4l0,0.2c0,0.1,0.1,0.3,0.1,0.4l0,0.1c0,0.1,0,0.3,0.1,0.4l0,0l0,0l0,0c0,0.1,0,0.3,0.1,0.4l0,0.1
			c0,0.2,0,0.3,0.1,0.4l0,0.1c0,0.2,0,0.3,0.1,0.5v0l0,0.1c0,0.1,0,0.3,0.1,0.4l0,0.1c0,0.1,0,0.3,0,0.4l0,0.2c0,0.1,0,0.3,0,0.4
			l0,0.1c0,0.1,0,0.3,0,0.4l0,0.1c0,0.2,0,0.3,0,0.4v0.1c0,0.1,0,0.3,0,0.4l0,0.1c0,0.1,0,0.3,0,0.4v0v0c0,0.1,0,0.3,0,0.4l0,0.1
			c0,0.1,0,0.3,0,0.4l0,0.2c0,0.1,0,0.3,0,0.4l0,0v0c0,0.2,0,0.3,0,0.4v0.1c0,0.1,0,0.3,0,0.4l0,0.1c0,0.1,0,0.3,0,0.4v0.2v0.3v0.1
			c0,0.1,0,0.3,0,0.4v0.1c0,0.1,0,0.3,0,0.4v0.1l0,0.3v0.2l0,0.3v0.2l0,0.4l0,0.2l0,0.3l0,0.3l0,0.3l0,0.2l0,0.4l0,0.2l0,0.3l0,0.2
			l0,0.3l0,0.2v0l0,0.3l0,0l0,0.2l0,0.2l0,0.4l0,0.2l0,0.2l0,0.4l0,0.2l-0.1,0.4l0,0.2l0,0.2l0,0.3l0,0.3l0,0.2l0,0L878.3,669.4z"/>
		<path id="XMLID_70_" fill-rule="evenodd" clip-rule="evenodd" fill="#67482F" d="M1221.6,657.2v4.1c0,2.2-0.7,4.2-1.8,5.6l0,0h0
			c-1.1,1.4-2.6,2.3-4.2,2.3h-55v-20.1h55c1.6,0,3.1,0.9,4.2,2.4C1221,653.1,1221.6,655,1221.6,657.2L1221.6,657.2z"/>
	</g>
	<g id="XMLID_43_">
		<path id="XMLID_71_" fill-rule="evenodd" clip-rule="evenodd" fill="#67482F" d="M435.7,713.9v18.4v104.5
			c0,11.7-9.6,21.3-21.3,21.3H183.6c-11.7,0-21.3-9.6-21.3-21.3l-0.4-146.3h273.8V713.9z"/>
		<path id="XMLID_72_" fill-rule="evenodd" clip-rule="evenodd" fill="#67482F" d="M156.3,685.8h285c3.1,0,5.6-2.5,5.6-5.6V669
			c0-3.1-2.5-5.6-5.6-5.6h-285c-3.1,0-5.6,2.5-5.6,5.6v11.2C150.7,683.3,153.2,685.8,156.3,685.8L156.3,685.8z"/>
		<path id="XMLID_73_" fill-rule="evenodd" clip-rule="evenodd" fill="#67482F" d="M164,656.9h269.5
			c-14.8-24.7-56.2-48.7-104.1-57.6c-1.8,3.3-5.8,5.5-9.1,6.8c-6.6,2.6-14.5,3.6-21.5,3.6c-7,0-14.9-1-21.5-3.6
			c-3.9-1.6-8.9-4.4-9.9-8.8C228.7,602.1,191.2,619.8,164,656.9L164,656.9z"/>
		<path id="XMLID_74_" fill-rule="evenodd" clip-rule="evenodd" fill="#67482F" d="M311.7,585.1c9.6,1.9,16.1,5.9,16.1,10.4
			c0,6.4-13,11.6-29.1,11.6c-16.1,0-29.1-5.2-29.1-11.6c0-4.6,6.6-8.5,16.1-10.4c3.1,3.7,7.8,6,13,6
			C304,591.1,308.6,588.7,311.7,585.1L311.7,585.1z"/>
		<path id="XMLID_75_" fill-rule="evenodd" clip-rule="evenodd" fill="#67482F" d="M298.8,588.2c7.8,0,14.2-6.4,14.2-14.2
			c0-7.8-6.4-14.2-14.2-14.2c-7.8,0-14.2,6.4-14.2,14.2C284.6,581.8,291,588.2,298.8,588.2L298.8,588.2z"/>
	</g>
	<g id="XMLID_38_">
		<path id="XMLID_76_" fill-rule="evenodd" clip-rule="evenodd" fill="#67482F" d="M1103.3,717.3c4,0,7.3,3.3,7.3,7.3
			c0,4-3.3,7.3-7.3,7.3h-8.7h-60.8h-8.7c-4,0-7.3-3.3-7.3-7.3c0-2,0.8-3.8,2.1-5.2c1.3-1.3,3.2-2.1,5.2-2.1H1103.3z"/>
		<path id="XMLID_77_" fill-rule="evenodd" clip-rule="evenodd" fill="#67482F" d="M1103.3,811.2v38.3c0,4.8-3.9,8.7-8.7,8.7h-60.8
			c-4.8,0-8.7-3.9-8.7-8.7v-30.5l0,0v-9.5h78.2V811.2z M1025,807v-2.8h78.2v2.8H1025z M1025,801.8V799h78.2v2.8H1025z M1025,796.6
			v-53.2c0-4.8,3.9-8.7,8.7-8.7h60.8c4.8,0,8.7,3.9,8.7,8.7v53.2H1025z"/>
	</g>
	<g id="XMLID_39_">
		<path id="XMLID_82_" fill-rule="evenodd" clip-rule="evenodd" fill="#67482F" d="M1214.3,717.3c4,0,7.3,3.3,7.3,7.3
			c0,4-3.3,7.3-7.3,7.3h-8.7h-60.8h-8.7c-4,0-7.3-3.3-7.3-7.3c0-2,0.8-3.8,2.1-5.2c1.3-1.3,3.2-2.1,5.2-2.1H1214.3z"/>
		<path id="XMLID_83_" fill-rule="evenodd" clip-rule="evenodd" fill="#67482F" d="M1214.3,811.2v38.3c0,4.8-3.9,8.7-8.7,8.7h-60.8
			c-4.8,0-8.7-3.9-8.7-8.7v-30.5l0,0v-9.5h78.2V811.2z M1136.1,807v-2.8h78.2v2.8H1136.1z M1136.1,801.8V799h78.2v2.8H1136.1z
			 M1136.1,796.6v-53.2c0-4.8,3.9-8.7,8.7-8.7h60.8c4.8,0,8.7,3.9,8.7,8.7v53.2H1136.1z"/>
	</g>
	<path id="XMLID_88_" fill-rule="evenodd" clip-rule="evenodd" fill="#67482F" d="M1186.8,163.2c-4.9-4-18-11.8-46.5-13l0,0.2
		l-0.7,2.7l-0.4,0.2c-3.6,2.3-7.2,2.2-10.8,0l-0.4-0.2l-0.7-2.7l-0.1-0.2c-30.2,0.9-49.8,9-57.9,13H1186.8z"/>
	<path id="XMLID_89_" fill-rule="evenodd" clip-rule="evenodd" fill="#67482F" d="M1093,278.4h78.3
		C1145.2,278.4,1119.1,278.4,1093,278.4L1093,278.4z M1087.6,280.8l-14.3,94.6c4.6,2.8,9.2,5.2,13.9,7.2l0,0v0
		c15.4,6.5,30.9,8.5,45,8.1V280.8h47.5l11.5,94.6c0,0-6.3,3.5-16.7,7.2v0c-10.6,3.7-25.4,7.6-42.2,8.1V280.8H1087.6z"/>
	<path id="XMLID_92_" fill-rule="evenodd" clip-rule="evenodd" fill="#67482F" d="M1097.5,259h-4.5v0h78.3v0h-2.9h-2.1h-31.9H1097.5
		z M1093,261.4v17h5.9h33.3h34.1h5.1v-17H1093z"/>
	<path id="XMLID_95_" fill-rule="evenodd" clip-rule="evenodd" fill="#67482F" d="M1138.7,152.4l0.5-2.3l4.1-16.9h0c0,0,0,0,0,0
		c0-0.8-4.3-1.4-9.5-1.4c-5.2,0-9.5,0.6-9.5,1.4c0,0,0,0,0,0h0l4.1,16.9l0.6,2.3C1132.5,154.6,1135.7,154.3,1138.7,152.4
		L1138.7,152.4z"/>
	<path id="XMLID_96_" fill-rule="evenodd" clip-rule="evenodd" fill="#67482F" d="M1097.5,259h36.7h31.9c0.8,0,1.5,0,2.1-0.1
		c12.2-0.7,11.5-7.3,11.5-7.3l7.8-71.9l1.5-14.2h-11.8h-43.2h-43.7h-11.2h-14.2H1050c0,0,24.3,17.9,29.4,58.8c0,0,0.8,16.6,2.1,25.7
		c1.3,9.1,11.5,9,11.5,9H1097.5z"/>
	<path id="XMLID_97_" fill-rule="evenodd" clip-rule="evenodd" fill="#67482F" d="M1191.1,165.6l-1.5,14.2h0
		c9-5.7,20.6-10.2,29.6-8.7c9,1.6,18,8.8,17.4,16.8c-1.7,24.2-9.5,46.2-20.5,67.7c-2.7,5.4-3.3,4.8-9.1,4.8h-8.1v11.2
		c6,0,9.7,0,15.7,0c5.6,0,7.1,1,9.8-3.8c14.1-24.9,25.1-53.7,25-82.3C1249.1,148,1192.2,155.7,1191.1,165.6L1191.1,165.6z"/>
	<g id="XMLID_35_">
		<path id="XMLID_36_" fill-rule="evenodd" clip-rule="evenodd" fill="#67482F" d="M879.8,741.4H854c0.6,4.4,0.8,8.8,0.8,13.4
			c0,4.6-0.3,9.2-0.9,13.7h26.2l-0.3-0.4c-2.5-4.1-4-8.7-4-13.5C875.9,749.8,877.3,745.3,879.8,741.4L879.8,741.4z"/>
		<path id="XMLID_37_" fill-rule="evenodd" clip-rule="evenodd" fill="#67482F" d="M998.6,757.7v-5.6c0-2.9-1.2-5.6-3.2-7.6v0l0,0
			c-1.9-1.9-4.6-3.1-7.6-3.1h-59.8c-3,4.5-11.6,2.1-15.7,1.6c-5.9-0.6-23.1-7-23.3-7c-1.1,0-3,1.8-6.4,7c-2,3-3.4,6.9-3.4,11.5
			c0,4.6,1.5,8.6,3.4,11.7c3.4,5.4,5.3,7.5,6.4,7.5c0.5,0,17.9-7.4,24.6-8.2c5.1-0.5,11.1-1.6,14.4,2.8h59.8c2.9,0,5.6-1.2,7.6-3.2
			C997.4,763.3,998.6,760.6,998.6,757.7L998.6,757.7z"/>
		<path id="XMLID_112_" fill-rule="evenodd" clip-rule="evenodd" fill="#67482F" d="M748.4,651.3c-57,0-103.5,46.5-103.5,103.5
			c0,57,46.5,103.5,103.5,103.5c57,0,103.5-46.5,103.5-103.5C851.8,697.7,805.4,651.3,748.4,651.3z M808.9,815.3
			c-15.5,15.5-36.9,25.1-60.5,25.1c-23.6,0-45-9.6-60.5-25.1c-15.5-15.5-25.1-36.9-25.1-60.5c0-23.6,9.6-45.1,25.1-60.5
			c15.5-15.5,36.9-25.1,60.5-25.1c23.6,0,45,9.6,60.5,25.1c15.5,15.5,25.1,36.9,25.1,60.5C834,778.4,824.4,799.8,808.9,815.3z"/>
		<path id="XMLID_108_" fill-rule="evenodd" clip-rule="evenodd" fill="#67482F" d="M804.9,698.2c-14.5-14.5-34.5-23.4-56.5-23.4
			c-22.1,0-42.1,9-56.5,23.4c-14.5,14.5-23.4,34.5-23.4,56.6c0,22.1,8.9,42.1,23.4,56.5c14.5,14.5,34.5,23.4,56.5,23.4
			c22.1,0,42.1-9,56.5-23.4c14.5-14.5,23.4-34.5,23.4-56.5C828.3,732.6,819.4,712.6,804.9,698.2z M748.4,778.6
			c-13.2,0-23.9-10.7-23.9-23.9c0-13.2,10.7-23.9,23.9-23.9c13.2,0,23.9,10.7,23.9,23.9C772.3,767.9,761.5,778.6,748.4,778.6z"/>
		<path id="XMLID_99_" fill-rule="evenodd" clip-rule="evenodd" fill="#67482F" d="M770.1,754.7c0,12-9.8,21.7-21.7,21.7
			c-12,0-21.7-9.8-21.7-21.7c0-12,9.8-21.7,21.7-21.7C760.3,733,770.1,742.7,770.1,754.7z"/>
	</g>
</g>
</svg>
